HIERARCHY
ROOT Hips
{
	OFFSET 0.00000 0.00000 0.00000
	CHANNELS 6 Xposition Yposition Zposition Zrotation Yrotation Xrotation 
	JOINT LHipJoint
	{
		OFFSET 0 0 0
		CHANNELS 3 Zrotation Yrotation Xrotation
		JOINT LeftHip
		{
			OFFSET 1.38280 -1.96574 0.54427
			CHANNELS 3 Zrotation Yrotation Xrotation
			JOINT LeftKnee
			{
				OFFSET 2.72096 -7.47578 0.00000
				CHANNELS 3 Zrotation Yrotation Xrotation
				JOINT LeftAnkle
				{
					OFFSET 2.73041 -7.50176 0.00000
					CHANNELS 3 Zrotation Yrotation Xrotation
					JOINT LeftToe
					{
						OFFSET 0.16150 -0.44371 2.18031
						CHANNELS 3 Zrotation Yrotation Xrotation
						End Site
						{
							OFFSET 0.00000 -0.00000 1.12127
						}
					}
				}
			}
		}
	}
	JOINT RHipJoint
	{
		OFFSET 0 0 0
		CHANNELS 3 Zrotation Yrotation Xrotation
		JOINT RightHip
		{
			OFFSET -1.57224 -1.96575 0.54427
			CHANNELS 3 Zrotation Yrotation Xrotation
			JOINT RightKnee
			{
				OFFSET -2.95935 -8.13076 0.00000
				CHANNELS 3 Zrotation Yrotation Xrotation
				JOINT RightAnkle
				{
					OFFSET -2.52345 -6.93311 0.00000
					CHANNELS 3 Zrotation Yrotation Xrotation
					JOINT RightToe
					{
						OFFSET -0.04475 -0.10171 1.86688
						CHANNELS 3 Zrotation Yrotation Xrotation
						End Site
						{
							OFFSET -0.00000 -0.00000 0.95157
						}
					}
				}
			}
		}
	}
	JOINT lowerback
	{
		OFFSET 0 0 0
		CHANNELS 3 Zrotation Yrotation Xrotation
		JOINT Chest
		{
			OFFSET 0.00669 2.07367 0.09104
			CHANNELS 3 Zrotation Yrotation Xrotation
			JOINT Chest2
			{
				OFFSET -0.00664 2.06198 -0.04732
				CHANNELS 3 Zrotation Yrotation Xrotation
				JOINT lowerneck
				{
					OFFSET 0 0 0
					CHANNELS 3 Zrotation Yrotation Xrotation
					JOINT Neck
					{
						OFFSET -0.00021 1.49948 0.16345
						CHANNELS 3 Zrotation Yrotation Xrotation
						JOINT Head
						{
							OFFSET 0.06080 1.50567 -0.26702
							CHANNELS 3 Zrotation Yrotation Xrotation
							End Site
							{
								OFFSET 0.01726 1.56470 -0.11854
							}
						}
					}
				}
				JOINT LeftCollar
				{
					OFFSET 0 0 0
					CHANNELS 3 Zrotation Yrotation Xrotation
					JOINT LeftShoulder
					{
						OFFSET 3.14993 0.82932 -0.22488
CHANNELS 3 Zrotation Xrotation Yrotation
						JOINT LeftElbow
						{
OFFSET 0 -5.682360 -0.000000
CHANNELS 3 Zrotation Xrotation Yrotation
							JOINT LeftWrist
							{
OFFSET 0 -3.171120 0.000000
CHANNELS 3 Zrotation Xrotation Yrotation
								JOINT lhand
								{
									OFFSET 0 0 0
CHANNELS 3 Zrotation Xrotation Yrotation
									JOINT LFingers
									{
OFFSET 0 -0.632690 0.000000
CHANNELS 3 Zrotation Xrotation Yrotation
										End Site
										{
OFFSET 0 -0.510090 0.000000
										}
									}
								}
								JOINT LThumb
								{
OFFSET 0 0.000000 0.000000
CHANNELS 3 Zrotation Xrotation Yrotation
									End Site
									{
OFFSET 0 -0.517880 0.517880
									}
								}
							}
						}
					}
				}
				JOINT RightCollar
				{
					OFFSET 0 0 0
					CHANNELS 3 Zrotation Yrotation Xrotation
					JOINT RightShoulder
					{
						OFFSET -3.10571 0.91279 -0.33334
CHANNELS 3 Zrotation Xrotation Yrotation
						JOINT RightElbow
						{
OFFSET 0 -5.871200 -0.000000
CHANNELS 3 Zrotation Xrotation Yrotation
							JOINT RightWrist
							{
OFFSET 0 -3.375890 0.000000
CHANNELS 3 Zrotation Xrotation Yrotation
								JOINT rhand
								{
									OFFSET 0 0 0
CHANNELS 3 Zrotation Xrotation Yrotation
									JOINT RFingers
									{
OFFSET 0 -0.603260 0.000000
CHANNELS 3 Zrotation Xrotation Yrotation
										End Site
										{
OFFSET 0 -0.486360 0.000000
										}
									}
								}
								JOINT RThumb
								{
OFFSET 0 0.000000 0.000000
CHANNELS 3 Zrotation Xrotation Yrotation
									End Site
									{
OFFSET 0 -0.493790 0.493790
									}
								}
							}
						}
					}
				}
			}
		}
	}
}
MOTION
Frames: 7
Frame Time: 0.008333333333333333
-8.296340 18.338419 10.876846 -555.333953 96.574706 176.189197 0.000000 0.000000 0.000000 -17.963470 -8.547997 -37.098108 4.837679 13.197380 40.114089 0.898384 1.287370 -18.415819 0.357655 -3.841309 -10.630642 0.000000 0.000000 0.000000 22.025006 9.156476 -17.357760 -2.552860 -9.933230 28.760945 0.484601 -12.517512 -1.746669 -13.686940 19.016332 -71.245951 2.613748 1.294220 -8.385492 2.414491 1.291271 2.789716 1.270049 0.705429 7.659165 -1.738078 -0.609585 -18.273722 -0.521093 0.016471 23.036064 0.122740 -0.129913 10.404442 0.000000 0.000000 0.000000 3.781750 2.883742 -36.338808 19.655454 -30.224970 5.356832 16.033612 -9.927270 -29.724699 0.000000 0.000000 0.000000 -7.125000 0.000000 0.000000 -17.373026 59.845668 6.411809 0.000000 0.000000 0.000000 -16.724671 -7.116648 18.307068 -21.996461 -32.972387 -6.584174 -21.804503 1.738449 -29.537671 0.000000 0.000000 0.000000 7.125000 0.000000 0.000000 5.258786 -1.298824 5.399228
-6.824959 18.372527 11.287860 -583.206908 94.172948 148.091292 0.000000 0.000000 0.000000 -15.804954 -13.961084 -37.084888 0.923560 6.121833 17.138592 0.436141 9.078751 -18.921603 0.260649 -3.284097 -9.070797 0.000000 0.000000 0.000000 25.597463 2.079578 -8.728371 -1.169841 -6.865198 19.316808 0.466658 -12.023562 -3.663680 -13.791125 19.049442 -71.565574 2.021458 1.569062 -8.391472 2.114425 1.740609 2.875835 1.355192 0.902609 7.743626 -1.612249 -1.096551 -20.424024 -0.041511 -0.806087 23.565804 0.145294 -0.446093 11.015312 0.000000 0.000000 0.000000 3.474755 4.116081 -35.791897 17.156404 -27.063339 4.158271 14.173670 -8.844510 -30.458350 0.000000 0.000000 0.000000 -7.125000 0.000000 0.000000 -19.895832 60.104014 7.509416 0.000000 0.000000 0.000000 -16.468461 -11.234201 22.891777 -34.296921 -44.300811 -14.321003 -22.276797 -4.558787 -29.948943 0.000000 0.000000 0.000000 7.125000 0.000000 0.000000 5.041692 -1.818456 5.219157
-4.898560 18.102735 11.500889 -573.901863 97.560175 156.649922 0.000000 0.000000 0.000000 -13.572262 -12.027219 -36.485108 1.135662 6.767260 19.027925 0.034070 11.580916 -16.954066 0.050624 -1.451376 -3.991672 0.000000 0.000000 0.000000 26.689807 0.222196 -0.554378 -1.019845 -6.424627 18.021640 0.384702 -11.005860 -5.568377 -13.829742 19.061555 -71.683972 0.465246 2.280900 -9.044848 1.320976 2.905919 2.848451 1.594929 1.407065 8.045005 -1.623952 -0.249521 -20.527197 -0.392891 0.494332 23.637612 0.218764 0.096990 11.052510 0.000000 0.000000 0.000000 4.008088 6.151575 -31.932405 15.875676 -25.351832 3.592580 14.102295 -7.115351 -31.085613 0.000000 0.000000 0.000000 -7.125000 0.000000 0.000000 -20.463174 60.672225 8.011916 0.000000 0.000000 0.000000 -13.190804 -7.887569 31.120476 -45.372437 -50.949570 -22.527666 -21.996273 -3.669974 -31.822683 0.000000 0.000000 0.000000 7.125000 0.000000 0.000000 5.470834 -3.676966 5.836435
-2.578015 18.278967 11.450618 -556.722377 96.874285 173.881292 0.000000 0.000000 0.000000 -18.870176 -7.944725 -35.212462 2.352575 9.564792 27.578740 0.075867 10.241290 -15.730959 0.020758 -0.928022 -2.550742 0.000000 0.000000 0.000000 22.629583 1.576913 1.317907 -2.407973 -9.668034 27.908720 -0.038722 2.671777 -3.716800 -14.047744 19.128442 -72.350236 -3.357945 1.272100 -9.999003 -0.331392 2.157241 1.980030 1.892445 0.910905 7.605497 -2.144170 1.007930 -20.589670 -0.928232 2.634146 24.162201 0.444517 0.950472 11.251284 0.000000 0.000000 0.000000 4.677879 5.119957 -28.108194 14.351195 -23.234490 2.965247 14.365232 -5.030539 -30.823949 0.000000 0.000000 0.000000 -7.125000 0.000000 0.000000 -19.975393 60.491027 7.725274 0.000000 0.000000 0.000000 -8.461489 4.230182 33.892110 -40.292284 -48.241712 -18.657017 -20.408907 -0.266254 -33.100372 0.000000 0.000000 0.000000 7.125000 0.000000 0.000000 6.547676 -4.638710 7.100741
-0.768182 18.470392 11.209474 -545.186755 99.320570 186.005082 0.000000 0.000000 0.000000 -22.345837 -6.115485 -29.258166 2.333749 9.529174 27.464947 0.904115 6.644716 -21.554828 0.004914 -0.446077 -1.225751 0.000000 0.000000 0.000000 16.197854 7.011477 -16.332801 -8.904421 -16.745617 55.758799 -0.045204 1.577701 4.919585 -14.036401 19.125033 -72.315655 -4.572251 -0.100530 -9.824344 0.010844 0.440919 1.806597 2.659334 0.018598 7.406774 -1.245625 3.025889 -20.440489 -2.218528 5.605385 24.758308 0.291247 2.204000 11.502819 0.000000 0.000000 0.000000 5.674450 -0.497530 -32.370630 17.603544 -27.646536 4.363742 15.535302 -7.668644 -29.922890 0.000000 0.000000 0.000000 -7.125000 0.000000 0.000000 -18.047569 59.918213 6.701727 0.000000 0.000000 0.000000 -6.217341 6.525387 24.101258 -22.683779 -33.738714 -6.962894 -21.694497 2.759143 -31.336190 0.000000 0.000000 0.000000 7.125000 0.000000 0.000000 5.570964 -3.116714 5.893019
0.809826 18.346155 10.972856 -546.137235 98.081981 184.562159 0.000000 0.000000 0.000000 -24.277747 -5.446343 -24.214501 2.744155 10.268853 29.851844 1.793567 1.589708 -25.930083 0.156527 -2.545833 -7.016922 0.000000 0.000000 0.000000 12.971431 13.302989 -29.606785 -6.859658 -15.211232 48.339262 -0.040957 -7.767939 6.286014 -13.867396 19.073309 -71.799073 -3.763387 -1.445953 -8.871608 1.367300 -1.590940 2.168352 3.322276 -0.980701 7.424418 -0.518484 3.429737 -19.983098 -1.822143 6.118416 28.124637 0.439431 2.529605 12.744878 0.000000 0.000000 0.000000 8.834287 -11.426415 -36.628458 18.661163 -28.995314 4.865580 14.586157 -6.868177 -31.464717 0.000000 0.000000 0.000000 -7.125000 0.000000 0.000000 -20.254431 61.141278 8.153617 0.000000 0.000000 0.000000 -6.576615 7.576569 4.509873 -14.058741 -22.818580 -2.850900 -21.856083 9.403924 -29.766999 0.000000 0.000000 0.000000 7.125000 0.000000 0.000000 5.260025 -1.545090 5.422240
2.445916 18.357238 10.813448 -536.508279 95.590502 194.108219 0.000000 0.000000 0.000000 -27.388379 -1.712328 -16.597388 1.948606 8.757883 25.041107 1.831483 -0.719223 -25.397877 0.359239 -3.849099 -10.652594 0.000000 0.000000 0.000000 11.369984 17.210795 -33.729675 -1.376763 -7.422749 20.975196 -0.050263 -2.172130 4.032901 -13.890426 19.080436 -71.869498 -3.521209 -2.159198 -8.158613 1.781781 -2.622007 2.360959 3.480204 -1.486544 7.321393 -1.067260 3.128403 -19.141978 -1.400515 5.716149 27.931033 0.604196 2.371670 12.456201 0.000000 0.000000 0.000000 11.086929 -16.543890 -36.611956 22.567181 -33.612062 6.897241 16.175566 -8.675001 -28.988602 0.000000 0.000000 0.000000 -7.125000 0.000000 0.000000 -16.713040 59.173476 5.889814 0.000000 0.000000 0.000000 -7.124196 12.034454 7.233623 -16.044918 -25.581468 -3.665339 -18.490074 7.948336 -28.818563 0.000000 0.000000 0.000000 7.125000 0.000000 0.000000 7.103634 0.064404 7.150834
